<mxfile host="app.diagrams.net" modified="2023-04-17T01:45:06.974Z" agent="Mozilla/5.0 (Macintosh; Intel Mac OS X 10_15_7) AppleWebKit/537.36 (KHTML, like Gecko) Chrome/112.0.0.0 Safari/537.36 Edg/112.0.1722.48" etag="aL8NL2_pbPXWfigopSA2" version="21.1.5" type="github">
  <diagram name="第 1 页" id="igWqunvhQteAbBkLn0Th">
    <mxGraphModel dx="897" dy="545" grid="1" gridSize="10" guides="1" tooltips="1" connect="1" arrows="1" fold="1" page="1" pageScale="1" pageWidth="827" pageHeight="1169" math="0" shadow="0">
      <root>
        <mxCell id="0" />
        <mxCell id="1" parent="0" />
        <mxCell id="ITbwOBYq7Vz5sZfCaZMy-46" value="" style="rounded=0;whiteSpace=wrap;html=1;" parent="1" vertex="1">
          <mxGeometry x="184" y="671" width="450" height="130" as="geometry" />
        </mxCell>
        <mxCell id="ITbwOBYq7Vz5sZfCaZMy-41" value="" style="rounded=0;whiteSpace=wrap;html=1;" parent="1" vertex="1">
          <mxGeometry x="14" y="600" width="140" height="290" as="geometry" />
        </mxCell>
        <mxCell id="ITbwOBYq7Vz5sZfCaZMy-1" value="1. 代码开发" style="shape=umlActor;verticalLabelPosition=bottom;verticalAlign=top;html=1;outlineConnect=0;" parent="1" vertex="1">
          <mxGeometry x="80" y="190" width="30" height="60" as="geometry" />
        </mxCell>
        <mxCell id="ITbwOBYq7Vz5sZfCaZMy-2" value="代码仓库" style="shape=cylinder3;whiteSpace=wrap;html=1;boundedLbl=1;backgroundOutline=1;size=15;" parent="1" vertex="1">
          <mxGeometry x="240" y="180" width="60" height="80" as="geometry" />
        </mxCell>
        <mxCell id="ITbwOBYq7Vz5sZfCaZMy-3" value="" style="endArrow=classic;html=1;rounded=0;exitX=0.5;exitY=0.5;exitDx=0;exitDy=0;exitPerimeter=0;entryX=0;entryY=0.5;entryDx=0;entryDy=0;entryPerimeter=0;" parent="1" source="ITbwOBYq7Vz5sZfCaZMy-1" target="ITbwOBYq7Vz5sZfCaZMy-2" edge="1">
          <mxGeometry width="50" height="50" relative="1" as="geometry">
            <mxPoint x="120" y="270" as="sourcePoint" />
            <mxPoint x="220" y="220" as="targetPoint" />
          </mxGeometry>
        </mxCell>
        <mxCell id="ITbwOBYq7Vz5sZfCaZMy-4" value="2. 提交代码变更" style="edgeLabel;html=1;align=center;verticalAlign=middle;resizable=0;points=[];" parent="ITbwOBYq7Vz5sZfCaZMy-3" vertex="1" connectable="0">
          <mxGeometry x="0.0909" y="3" relative="1" as="geometry">
            <mxPoint y="1" as="offset" />
          </mxGeometry>
        </mxCell>
        <mxCell id="ITbwOBYq7Vz5sZfCaZMy-5" value="jenkins集成平台&lt;br&gt;代码拉取&lt;br&gt;自动编译&lt;br&gt;自动打包" style="rounded=0;whiteSpace=wrap;html=1;" parent="1" vertex="1">
          <mxGeometry x="414" y="110" width="90" height="220" as="geometry" />
        </mxCell>
        <mxCell id="ITbwOBYq7Vz5sZfCaZMy-6" value="3.触发自动构建" style="endArrow=classic;html=1;rounded=0;exitX=1;exitY=0;exitDx=0;exitDy=27.5;exitPerimeter=0;entryX=0.011;entryY=0.448;entryDx=0;entryDy=0;entryPerimeter=0;" parent="1" source="ITbwOBYq7Vz5sZfCaZMy-2" target="ITbwOBYq7Vz5sZfCaZMy-5" edge="1">
          <mxGeometry width="50" height="50" relative="1" as="geometry">
            <mxPoint x="320" y="210" as="sourcePoint" />
            <mxPoint x="410" y="208" as="targetPoint" />
          </mxGeometry>
        </mxCell>
        <mxCell id="ITbwOBYq7Vz5sZfCaZMy-7" value="Jenkins管理员" style="shape=umlActor;verticalLabelPosition=bottom;verticalAlign=top;html=1;outlineConnect=0;" parent="1" vertex="1">
          <mxGeometry x="80" y="350" width="30" height="60" as="geometry" />
        </mxCell>
        <mxCell id="ITbwOBYq7Vz5sZfCaZMy-12" value="3.手动触发构建" style="endArrow=classic;html=1;rounded=0;exitX=0.5;exitY=0.5;exitDx=0;exitDy=0;exitPerimeter=0;entryX=0.5;entryY=1;entryDx=0;entryDy=0;" parent="1" source="ITbwOBYq7Vz5sZfCaZMy-7" target="ITbwOBYq7Vz5sZfCaZMy-5" edge="1">
          <mxGeometry width="50" height="50" relative="1" as="geometry">
            <mxPoint x="210" y="430" as="sourcePoint" />
            <mxPoint x="260" y="380" as="targetPoint" />
            <Array as="points">
              <mxPoint x="459" y="380" />
            </Array>
          </mxGeometry>
        </mxCell>
        <mxCell id="ITbwOBYq7Vz5sZfCaZMy-13" value="4.拉取代码&lt;br&gt;自动构建" style="endArrow=classic;html=1;rounded=0;entryX=1;entryY=0;entryDx=0;entryDy=52.5;entryPerimeter=0;" parent="1" target="ITbwOBYq7Vz5sZfCaZMy-2" edge="1">
          <mxGeometry width="50" height="50" relative="1" as="geometry">
            <mxPoint x="415" y="233" as="sourcePoint" />
            <mxPoint x="350" y="300" as="targetPoint" />
          </mxGeometry>
        </mxCell>
        <mxCell id="ITbwOBYq7Vz5sZfCaZMy-16" value="" style="rounded=0;whiteSpace=wrap;html=1;" parent="1" vertex="1">
          <mxGeometry x="600" y="80" width="140" height="140" as="geometry" />
        </mxCell>
        <mxCell id="ITbwOBYq7Vz5sZfCaZMy-17" value="android：浦公英平台" style="rounded=0;whiteSpace=wrap;html=1;" parent="1" vertex="1">
          <mxGeometry x="610" y="120" width="120" height="40" as="geometry" />
        </mxCell>
        <mxCell id="ITbwOBYq7Vz5sZfCaZMy-19" value="ios：Testflight平台" style="rounded=0;whiteSpace=wrap;html=1;" parent="1" vertex="1">
          <mxGeometry x="610" y="170" width="120" height="40" as="geometry" />
        </mxCell>
        <mxCell id="ITbwOBYq7Vz5sZfCaZMy-20" value="测试环境" style="text;html=1;strokeColor=none;fillColor=none;align=center;verticalAlign=middle;whiteSpace=wrap;rounded=0;" parent="1" vertex="1">
          <mxGeometry x="640" y="90" width="60" height="30" as="geometry" />
        </mxCell>
        <mxCell id="ITbwOBYq7Vz5sZfCaZMy-21" value="" style="rounded=0;whiteSpace=wrap;html=1;" parent="1" vertex="1">
          <mxGeometry x="600" y="250" width="140" height="110" as="geometry" />
        </mxCell>
        <mxCell id="ITbwOBYq7Vz5sZfCaZMy-22" value="生产环境" style="text;html=1;strokeColor=none;fillColor=none;align=center;verticalAlign=middle;whiteSpace=wrap;rounded=0;" parent="1" vertex="1">
          <mxGeometry x="630" y="260" width="80" height="30" as="geometry" />
        </mxCell>
        <mxCell id="ITbwOBYq7Vz5sZfCaZMy-23" value="阿里OSS" style="rounded=0;whiteSpace=wrap;html=1;" parent="1" vertex="1">
          <mxGeometry x="610" y="290" width="120" height="50" as="geometry" />
        </mxCell>
        <mxCell id="ITbwOBYq7Vz5sZfCaZMy-24" style="edgeStyle=orthogonalEdgeStyle;rounded=0;orthogonalLoop=1;jettySize=auto;html=1;exitX=0.5;exitY=1;exitDx=0;exitDy=0;" parent="1" source="ITbwOBYq7Vz5sZfCaZMy-21" target="ITbwOBYq7Vz5sZfCaZMy-21" edge="1">
          <mxGeometry relative="1" as="geometry" />
        </mxCell>
        <mxCell id="ITbwOBYq7Vz5sZfCaZMy-25" value="5. 自动部署" style="endArrow=classic;html=1;rounded=0;exitX=1;exitY=0.25;exitDx=0;exitDy=0;entryX=0.007;entryY=0.596;entryDx=0;entryDy=0;entryPerimeter=0;" parent="1" source="ITbwOBYq7Vz5sZfCaZMy-5" target="ITbwOBYq7Vz5sZfCaZMy-16" edge="1">
          <mxGeometry width="50" height="50" relative="1" as="geometry">
            <mxPoint x="520" y="180" as="sourcePoint" />
            <mxPoint x="570" y="130" as="targetPoint" />
          </mxGeometry>
        </mxCell>
        <mxCell id="ITbwOBYq7Vz5sZfCaZMy-26" value="6. 自动部署" style="endArrow=classic;html=1;rounded=0;exitX=1.011;exitY=0.83;exitDx=0;exitDy=0;exitPerimeter=0;entryX=-0.007;entryY=0.395;entryDx=0;entryDy=0;entryPerimeter=0;" parent="1" source="ITbwOBYq7Vz5sZfCaZMy-5" target="ITbwOBYq7Vz5sZfCaZMy-21" edge="1">
          <mxGeometry width="50" height="50" relative="1" as="geometry">
            <mxPoint x="530" y="410" as="sourcePoint" />
            <mxPoint x="580" y="360" as="targetPoint" />
          </mxGeometry>
        </mxCell>
        <mxCell id="ITbwOBYq7Vz5sZfCaZMy-27" value="数据采集" style="rounded=0;whiteSpace=wrap;html=1;" parent="1" vertex="1">
          <mxGeometry x="194" y="716" width="120" height="60" as="geometry" />
        </mxCell>
        <mxCell id="ITbwOBYq7Vz5sZfCaZMy-28" value="标准化组装" style="rounded=0;whiteSpace=wrap;html=1;" parent="1" vertex="1">
          <mxGeometry x="349" y="716" width="120" height="60" as="geometry" />
        </mxCell>
        <mxCell id="ITbwOBYq7Vz5sZfCaZMy-30" value="日志平台" style="rounded=0;whiteSpace=wrap;html=1;" parent="1" vertex="1">
          <mxGeometry x="694" y="655" width="120" height="60" as="geometry" />
        </mxCell>
        <mxCell id="ITbwOBYq7Vz5sZfCaZMy-31" value="埋点平台" style="rounded=0;whiteSpace=wrap;html=1;" parent="1" vertex="1">
          <mxGeometry x="694" y="760" width="120" height="60" as="geometry" />
        </mxCell>
        <mxCell id="ITbwOBYq7Vz5sZfCaZMy-32" value="js执行异常" style="rounded=0;whiteSpace=wrap;html=1;" parent="1" vertex="1">
          <mxGeometry x="29" y="640" width="105" height="40" as="geometry" />
        </mxCell>
        <mxCell id="ITbwOBYq7Vz5sZfCaZMy-33" value="静态资源&lt;br&gt;加载错误" style="rounded=0;whiteSpace=wrap;html=1;" parent="1" vertex="1">
          <mxGeometry x="29" y="700" width="105" height="40" as="geometry" />
        </mxCell>
        <mxCell id="ITbwOBYq7Vz5sZfCaZMy-36" value="VUE框架错误" style="rounded=0;whiteSpace=wrap;html=1;" parent="1" vertex="1">
          <mxGeometry x="29" y="760" width="105" height="40" as="geometry" />
        </mxCell>
        <mxCell id="ITbwOBYq7Vz5sZfCaZMy-39" value="http请求错误" style="rounded=0;whiteSpace=wrap;html=1;" parent="1" vertex="1">
          <mxGeometry x="29" y="820" width="105" height="40" as="geometry" />
        </mxCell>
        <mxCell id="ITbwOBYq7Vz5sZfCaZMy-42" value="H5页面异常" style="text;html=1;strokeColor=none;fillColor=none;align=center;verticalAlign=middle;whiteSpace=wrap;rounded=0;" parent="1" vertex="1">
          <mxGeometry x="44" y="610" width="70" height="30" as="geometry" />
        </mxCell>
        <mxCell id="ITbwOBYq7Vz5sZfCaZMy-44" value="" style="endArrow=classic;html=1;rounded=0;exitX=1;exitY=0.5;exitDx=0;exitDy=0;" parent="1" source="ITbwOBYq7Vz5sZfCaZMy-27" target="ITbwOBYq7Vz5sZfCaZMy-28" edge="1">
          <mxGeometry width="50" height="50" relative="1" as="geometry">
            <mxPoint x="364" y="931" as="sourcePoint" />
            <mxPoint x="414" y="881" as="targetPoint" />
          </mxGeometry>
        </mxCell>
        <mxCell id="ITbwOBYq7Vz5sZfCaZMy-47" value="智能上送" style="rounded=0;whiteSpace=wrap;html=1;" parent="1" vertex="1">
          <mxGeometry x="504" y="716" width="120" height="60" as="geometry" />
        </mxCell>
        <mxCell id="ITbwOBYq7Vz5sZfCaZMy-48" value="" style="endArrow=classic;html=1;rounded=0;exitX=1;exitY=0.5;exitDx=0;exitDy=0;" parent="1" source="ITbwOBYq7Vz5sZfCaZMy-28" target="ITbwOBYq7Vz5sZfCaZMy-47" edge="1">
          <mxGeometry width="50" height="50" relative="1" as="geometry">
            <mxPoint x="544" y="901" as="sourcePoint" />
            <mxPoint x="594" y="851" as="targetPoint" />
          </mxGeometry>
        </mxCell>
        <mxCell id="ITbwOBYq7Vz5sZfCaZMy-49" value="监控SDK" style="text;html=1;strokeColor=none;fillColor=none;align=center;verticalAlign=middle;whiteSpace=wrap;rounded=0;" parent="1" vertex="1">
          <mxGeometry x="374" y="681" width="60" height="30" as="geometry" />
        </mxCell>
        <mxCell id="ITbwOBYq7Vz5sZfCaZMy-50" value="" style="endArrow=classic;html=1;rounded=0;exitX=1.014;exitY=0.471;exitDx=0;exitDy=0;entryX=0;entryY=0.5;entryDx=0;entryDy=0;exitPerimeter=0;" parent="1" source="ITbwOBYq7Vz5sZfCaZMy-41" target="ITbwOBYq7Vz5sZfCaZMy-46" edge="1">
          <mxGeometry width="50" height="50" relative="1" as="geometry">
            <mxPoint x="624" y="920" as="sourcePoint" />
            <mxPoint x="674" y="870" as="targetPoint" />
          </mxGeometry>
        </mxCell>
        <mxCell id="ITbwOBYq7Vz5sZfCaZMy-51" value="" style="endArrow=classic;html=1;rounded=0;exitX=1;exitY=0.5;exitDx=0;exitDy=0;entryX=0;entryY=0.5;entryDx=0;entryDy=0;" parent="1" source="ITbwOBYq7Vz5sZfCaZMy-46" target="ITbwOBYq7Vz5sZfCaZMy-30" edge="1">
          <mxGeometry width="50" height="50" relative="1" as="geometry">
            <mxPoint x="674" y="760" as="sourcePoint" />
            <mxPoint x="724" y="710" as="targetPoint" />
            <Array as="points">
              <mxPoint x="674" y="736" />
              <mxPoint x="674" y="685" />
            </Array>
          </mxGeometry>
        </mxCell>
        <mxCell id="ITbwOBYq7Vz5sZfCaZMy-52" value="" style="endArrow=classic;html=1;rounded=0;entryX=0;entryY=0.5;entryDx=0;entryDy=0;exitX=1;exitY=0.5;exitDx=0;exitDy=0;" parent="1" source="ITbwOBYq7Vz5sZfCaZMy-46" target="ITbwOBYq7Vz5sZfCaZMy-31" edge="1">
          <mxGeometry width="50" height="50" relative="1" as="geometry">
            <mxPoint x="634" y="740" as="sourcePoint" />
            <mxPoint x="674" y="880" as="targetPoint" />
            <Array as="points">
              <mxPoint x="674" y="736" />
              <mxPoint x="674" y="790" />
            </Array>
          </mxGeometry>
        </mxCell>
      </root>
    </mxGraphModel>
  </diagram>
</mxfile>
